<mxfile host="Electron" modified="2023-04-16T13:27:20.994Z" agent="Mozilla/5.0 (Macintosh; Intel Mac OS X 10_15_7) AppleWebKit/537.36 (KHTML, like Gecko) draw.io/21.1.2 Chrome/106.0.5249.199 Electron/21.4.3 Safari/537.36" etag="Q9QkRvzKTl29D2GQ-g2x" version="21.1.2" type="device">
  <diagram name="第 1 页" id="I-Z1-jhpHYoZDFESr1rK">
    <mxGraphModel dx="1242" dy="2076" grid="1" gridSize="10" guides="1" tooltips="1" connect="1" arrows="1" fold="1" page="1" pageScale="1" pageWidth="827" pageHeight="1169" math="0" shadow="0">
      <root>
        <mxCell id="0" />
        <mxCell id="1" parent="0" />
        <mxCell id="GrDGrqluCosXYCQCfPyx-1" value="" style="rounded=0;whiteSpace=wrap;html=1;" vertex="1" parent="1">
          <mxGeometry x="100" y="190" width="270" height="140" as="geometry" />
        </mxCell>
        <mxCell id="GrDGrqluCosXYCQCfPyx-2" value="&lt;font style=&quot;font-size: 15px;&quot;&gt;页表基地址&lt;/font&gt;" style="rounded=0;whiteSpace=wrap;html=1;" vertex="1" parent="1">
          <mxGeometry x="110" y="240" width="80" height="40" as="geometry" />
        </mxCell>
        <mxCell id="GrDGrqluCosXYCQCfPyx-3" value="&lt;font style=&quot;font-size: 15px;&quot;&gt;根页表寄存器&lt;/font&gt;" style="rounded=0;whiteSpace=wrap;html=1;" vertex="1" parent="1">
          <mxGeometry x="260" y="240" width="80" height="40" as="geometry" />
        </mxCell>
        <mxCell id="GrDGrqluCosXYCQCfPyx-4" value="" style="endArrow=classic;html=1;rounded=0;entryX=0;entryY=0.5;entryDx=0;entryDy=0;" edge="1" parent="1" target="GrDGrqluCosXYCQCfPyx-3">
          <mxGeometry width="50" height="50" relative="1" as="geometry">
            <mxPoint x="190" y="260" as="sourcePoint" />
            <mxPoint x="240" y="210" as="targetPoint" />
          </mxGeometry>
        </mxCell>
        <mxCell id="GrDGrqluCosXYCQCfPyx-5" value="&lt;font style=&quot;font-size: 20px;&quot;&gt;&lt;b&gt;页表安装&lt;/b&gt;&lt;/font&gt;" style="text;html=1;strokeColor=none;fillColor=none;align=center;verticalAlign=middle;whiteSpace=wrap;rounded=0;" vertex="1" parent="1">
          <mxGeometry x="180" y="340" width="90" height="30" as="geometry" />
        </mxCell>
        <mxCell id="GrDGrqluCosXYCQCfPyx-6" value="" style="rounded=0;whiteSpace=wrap;html=1;" vertex="1" parent="1">
          <mxGeometry x="470" y="190" width="270" height="140" as="geometry" />
        </mxCell>
        <mxCell id="GrDGrqluCosXYCQCfPyx-7" value="" style="endArrow=classic;html=1;rounded=0;entryX=0;entryY=0.5;entryDx=0;entryDy=0;" edge="1" parent="1" target="GrDGrqluCosXYCQCfPyx-6">
          <mxGeometry width="50" height="50" relative="1" as="geometry">
            <mxPoint x="370" y="260" as="sourcePoint" />
            <mxPoint x="420" y="210" as="targetPoint" />
          </mxGeometry>
        </mxCell>
        <mxCell id="GrDGrqluCosXYCQCfPyx-8" value="&lt;font style=&quot;font-size: 15px;&quot;&gt;GVA&lt;/font&gt;" style="rounded=0;whiteSpace=wrap;html=1;" vertex="1" parent="1">
          <mxGeometry x="500" y="240" width="80" height="50" as="geometry" />
        </mxCell>
        <mxCell id="GrDGrqluCosXYCQCfPyx-10" value="&lt;font style=&quot;font-size: 15px;&quot;&gt;HPA&lt;/font&gt;" style="rounded=0;whiteSpace=wrap;html=1;" vertex="1" parent="1">
          <mxGeometry x="620" y="240" width="80" height="50" as="geometry" />
        </mxCell>
        <mxCell id="GrDGrqluCosXYCQCfPyx-15" value="" style="endArrow=classic;html=1;rounded=0;exitX=1;exitY=0.5;exitDx=0;exitDy=0;entryX=0;entryY=0.5;entryDx=0;entryDy=0;" edge="1" parent="1" source="GrDGrqluCosXYCQCfPyx-8" target="GrDGrqluCosXYCQCfPyx-10">
          <mxGeometry width="50" height="50" relative="1" as="geometry">
            <mxPoint x="590" y="260" as="sourcePoint" />
            <mxPoint x="640" y="210" as="targetPoint" />
          </mxGeometry>
        </mxCell>
        <mxCell id="GrDGrqluCosXYCQCfPyx-16" value="&lt;font style=&quot;font-size: 15px;&quot;&gt;虚拟机下陷&lt;/font&gt;" style="text;html=1;strokeColor=none;fillColor=none;align=center;verticalAlign=middle;whiteSpace=wrap;rounded=0;" vertex="1" parent="1">
          <mxGeometry x="380" y="220" width="80" height="30" as="geometry" />
        </mxCell>
        <mxCell id="GrDGrqluCosXYCQCfPyx-17" value="&lt;font style=&quot;font-size: 20px;&quot;&gt;&lt;b&gt;构建影子页表&lt;/b&gt;&lt;/font&gt;" style="text;html=1;strokeColor=none;fillColor=none;align=center;verticalAlign=middle;whiteSpace=wrap;rounded=0;" vertex="1" parent="1">
          <mxGeometry x="540" y="350" width="140" height="30" as="geometry" />
        </mxCell>
        <mxCell id="GrDGrqluCosXYCQCfPyx-18" value="" style="rounded=0;whiteSpace=wrap;html=1;" vertex="1" parent="1">
          <mxGeometry x="100" y="-10" width="270" height="120" as="geometry" />
        </mxCell>
        <mxCell id="GrDGrqluCosXYCQCfPyx-19" value="&lt;font style=&quot;font-size: 15px;&quot;&gt;GVA&lt;/font&gt;" style="rounded=0;whiteSpace=wrap;html=1;" vertex="1" parent="1">
          <mxGeometry x="120" y="20" width="90" height="50" as="geometry" />
        </mxCell>
        <mxCell id="GrDGrqluCosXYCQCfPyx-20" value="&lt;font style=&quot;font-size: 15px;&quot;&gt;GPA&lt;/font&gt;" style="rounded=0;whiteSpace=wrap;html=1;" vertex="1" parent="1">
          <mxGeometry x="270" y="20" width="80" height="50" as="geometry" />
        </mxCell>
        <mxCell id="GrDGrqluCosXYCQCfPyx-21" value="" style="endArrow=classic;html=1;rounded=0;exitX=1;exitY=0.5;exitDx=0;exitDy=0;entryX=0;entryY=0.5;entryDx=0;entryDy=0;" edge="1" parent="1" source="GrDGrqluCosXYCQCfPyx-19" target="GrDGrqluCosXYCQCfPyx-20">
          <mxGeometry width="50" height="50" relative="1" as="geometry">
            <mxPoint x="220" y="50" as="sourcePoint" />
            <mxPoint x="270" as="targetPoint" />
          </mxGeometry>
        </mxCell>
        <mxCell id="GrDGrqluCosXYCQCfPyx-22" value="&lt;font style=&quot;font-size: 20px;&quot;&gt;&lt;b&gt;操作系统构建页表&lt;/b&gt;&lt;/font&gt;" style="text;html=1;strokeColor=none;fillColor=none;align=center;verticalAlign=middle;whiteSpace=wrap;rounded=0;" vertex="1" parent="1">
          <mxGeometry x="157.5" y="120" width="165" height="30" as="geometry" />
        </mxCell>
        <mxCell id="GrDGrqluCosXYCQCfPyx-23" value="" style="endArrow=classic;html=1;rounded=0;exitX=0.5;exitY=1;exitDx=0;exitDy=0;entryX=0.5;entryY=0;entryDx=0;entryDy=0;" edge="1" parent="1" source="GrDGrqluCosXYCQCfPyx-18" target="GrDGrqluCosXYCQCfPyx-1">
          <mxGeometry width="50" height="50" relative="1" as="geometry">
            <mxPoint x="380" y="150" as="sourcePoint" />
            <mxPoint x="430" y="100" as="targetPoint" />
          </mxGeometry>
        </mxCell>
        <mxCell id="GrDGrqluCosXYCQCfPyx-24" value="" style="endArrow=classic;html=1;rounded=0;entryX=0.5;entryY=1;entryDx=0;entryDy=0;" edge="1" parent="1" target="GrDGrqluCosXYCQCfPyx-1">
          <mxGeometry width="50" height="50" relative="1" as="geometry">
            <mxPoint x="600" y="330" as="sourcePoint" />
            <mxPoint x="650" y="280" as="targetPoint" />
            <Array as="points">
              <mxPoint x="600" y="490" />
              <mxPoint x="235" y="490" />
            </Array>
          </mxGeometry>
        </mxCell>
        <mxCell id="GrDGrqluCosXYCQCfPyx-25" value="&lt;font style=&quot;font-size: 20px;&quot;&gt;&lt;b&gt;重新安装页表&lt;/b&gt;&lt;/font&gt;" style="text;html=1;strokeColor=none;fillColor=none;align=center;verticalAlign=middle;whiteSpace=wrap;rounded=0;" vertex="1" parent="1">
          <mxGeometry x="352" y="440" width="136" height="30" as="geometry" />
        </mxCell>
      </root>
    </mxGraphModel>
  </diagram>
</mxfile>
